P3
10 8
255 255 0 0
 255 0 0
 255 0 0
 255 0 0
 255 0 0
 255 0 0
 255 0 0
 255 0 0
 255 0 0
 255 0 0
 255 0 0
 255 0 0
 255 0 0
 255 0 0
 255 0 0
 255 0 0
 255 0 0
 255 0 0
 255 0 0
 255 0 0
 255 0 0
 255 0 0
 255 0 0
 255 0 0
 255 0 0
 255 0 0
 255 0 0
 255 0 0
 255 0 0
 255 0 0
 255 0 0
 255 0 0
 255 0 0
 255 0 0
 255 0 0
 255 0 0
 255 0 0
 255 0 0
 255 0 0
 255 0 0
 255 0 0
 255 0 0
 255 0 0
 255 0 0
 255 0 0
 255 0 0
 255 0 0
 255 0 0
 255 0 0
 255 0 0
 255 0 0
 255 0 0
 255 0 0
 255 0 0
 255 0 0
 255 0 0
 255 0 0
 255 0 0
 255 0 0
 255 0 0
 255 0 0
 255 0 0
 255 0 0
 255 0 0
 255 0 0
 255 0 0
 255 0 0
 255 0 0
 255 0 0
 255 0 0
 0 0 0
 0 0 0
 0 0 0
 0 0 0
 0 0 0
 0 0 0
 0 0 0
 0 0 0
 0 0 0
 0 0 0
